<?xml version="1.0" encoding="UTF-8"?>
<svg id="_27" data-name="27" xmlns="http://www.w3.org/2000/svg" version="1.1" viewBox="0 0 800 800">
  <defs>
    <style>
      .cls-1 {
        fill: #231f1f;
        stroke-width: 0px;
      }
    </style>
  </defs>
  <path class="cls-1" d="M202.98,0l-22.3,21.07L158.47,0h5.1l17.1,16.15L197.78,0h5.2ZM148.07,0l-22.21,21.07L103.57,0h5.2l17.1,16.15L142.97,0h5.1ZM93.27,0l-22.3,21.07L48.76,0h5.2l17.01,16.15L88.07,0h5.2ZM38.46,0l-22.3,21.07L0,5.76V.85l16.16,15.31L33.26,0h5.2ZM218.47,0l17.1,16.15L252.59,0h5.2l-22.21,21.07L213.28,0h5.2ZM273.28,0l17.1,16.15L307.49,0h5.19l-22.3,21.07L268.08,0h5.2ZM328.18,0l17.01,16.15L362.3,0h5.2l-22.3,21.07L322.99,0h5.2ZM382.99,0l17.1,16.15L417.2,0h5.1l-22.2,21.07L377.8,0h5.2ZM437.8,0l17.1,16.15L472,0h5.2l-22.31,21.07L432.7,0h5.1ZM492.7,0l17.1,16.15,17.01-16.15h5.2l-.28.28-21.92,20.79L487.51,0h5.19ZM547.51,0c5.57,5.38,11.24,10.77,17.01,16.15l17.01-16.15h5.2l-22.21,21.07-22.3-21.07h5.29ZM602.22,0l17.1,16.15,17.1-16.15h5.2l-22.3,21.07-22.3-21.07h5.2ZM657.12,0l17.01,16.15,17.1-16.15h5.2l-22.3,21.07-22.21-21.07h5.2ZM711.93,0l17.1,16.15,17.1-16.15h5.1l-22.2,21.07-22.3-21.07h5.2ZM766.74,0l17.1,16.15,16.15-15.31v4.91l-16.15,15.31-22.21-21.07h5.1ZM799.81,800h-5.2l5.38-5.2v4.91l-.19.28ZM773.07,800h-5.1l-11.52-10.96-11.53,10.96h-5.1l16.63-15.77,16.63,15.77ZM718.26,800h-5.2l-11.43-10.96-11.53,10.96h-5.2l16.73-15.77,16.63,15.77ZM663.36,800h-5.1l-11.52-10.96-11.44,10.96h-5.2l16.64-15.77,16.63,15.77ZM608.55,800h-5.2l-11.43-10.96h0l-11.53,10.96h-5.2l16.73-15.77,16.63,15.77ZM553.74,800h-5.2l-11.43-10.87-5.38,5.1-6.05,5.76h-5.11l15.03-14.26c.47-.57,1.04-1.04,1.61-1.51,5.57,5.19,11.05,10.49,16.53,15.77h0ZM499.03,800h-5.19l-11.53-10.96-11.43,10.96h-5.2l16.63-15.77,16.73,15.77ZM444.13,800h-5.11l-11.52-10.96-11.53,10.96h-5.1l16.64-15.77,16.63,15.77ZM389.32,800h-5.2l-11.43-10.96-11.53,10.96h-5.2l16.73-15.77,16.63,15.77ZM334.42,800h-5.1l-11.53-10.96h0l-11.44,10.96h-5.19l16.63-15.77,16.63,15.77ZM279.61,800h-5.2l-11.43-10.96-11.53,10.96h-5.2l16.73-15.77,16.63,15.77ZM224.81,800h-5.2l-11.53-10.96h0l-11.43,10.96h-5.2l16.63-15.77,16.73,15.77ZM169.9,800h-5.1l-11.53-10.96-11.53,10.96h-5.1l16.63-15.77,16.63,15.77ZM115.1,800h-5.2l-11.43-10.96-11.53,10.96h-5.2l16.73-15.77,16.63,15.77ZM60.19,800h-5.1l-11.53-10.96-11.43,10.96h-5.2l16.63-15.77,16.63,15.77ZM5.39,800H.19l-.19-.28v-4.91l5.39,5.2ZM208.08,761.73h0l-27.4,25.89-27.4-25.89-27.4,25.89-27.4-25.89-27.5,25.89-27.4-25.89-27.4,25.89-16.16-15.3v-4.82l16.16,15.31,27.4-25.98,27.4,25.98,27.5-25.98,27.4,25.98,27.4-25.98,27.4,25.98,27.4-25.98,27.5,25.98,27.41-25.98,27.4,25.98,27.4-25.98,27.4,25.98,27.5-25.98,27.4,25.98,27.41-25.98,27.4,25.98,27.4-25.98,27.5,25.98,25.8-24.47c.47-.48,1.04-1.04,1.61-1.51,9.07,8.59,18.05,17.29,27.31,25.98l27.4-25.98,27.41,25.98,27.4-25.98,27.4,25.98,27.5-25.98,27.4,25.98,27.4-25.98,27.4,25.98,16.15-15.31v4.82l-16.15,15.3-27.4-25.89-27.4,25.89-27.4-25.89-27.5,25.89-27.4-25.89-27.4,25.89-27.41-25.89h0l-27.4,25.89-27.4-25.89-5.38,5.1-21.92,20.79-27.5-25.89-27.4,25.89-27.4-25.89-27.41,25.89-27.4-25.89-27.5,25.89-27.4-25.89h0l-27.4,25.89-27.4-25.89-27.41,25.89-27.5-25.89ZM208.08,734.34h0l-27.4,25.88-27.4-25.88-27.4,25.98-27.4-25.98-27.5,25.88-27.4-25.88-27.4,25.88-16.16-15.21v-4.92l16.16,15.31,27.4-25.98,27.4,25.98,27.5-25.98,27.4,25.98,27.4-25.98,27.4,25.98,27.4-25.98,27.5,25.98,27.41-25.98,27.4,25.98,27.4-25.98,27.4,25.98,27.5-25.98,27.4,25.98,27.41-25.98,27.4,25.98,27.4-25.98,27.5,25.98,25.8-24.47c.47-.47,1.04-.94,1.61-1.51,9.07,8.69,18.05,17.29,27.31,25.98l27.4-25.98,27.41,25.98,27.4-25.98,27.4,25.98,27.5-25.98,27.4,25.98,27.4-25.98,27.4,25.98,16.15-15.31v4.92l-16.15,15.21-27.4-25.88-27.4,25.88-27.4-25.88-27.5,25.98-27.4-25.98-27.4,25.88-27.41-25.88h0l-27.4,25.88-27.4-25.79-5.38,5.01-21.92,20.79-27.5-25.88-27.4,25.88-27.4-25.88-27.41,25.98-27.4-25.98-27.5,25.88-27.4-25.88h0l-27.4,25.88-27.4-25.88-27.41,25.88-27.5-25.88ZM208.08,706.94h0l-27.4,25.98-27.4-25.98-27.4,25.98-27.4-25.98-27.5,25.98-27.4-25.98-27.4,25.98-16.16-15.3v-4.92l16.16,15.31,27.4-25.98,27.4,25.98,27.5-25.98,27.4,25.98,27.4-25.98,27.4,25.98,27.4-25.98,27.5,25.98,27.41-25.98,27.4,25.98,27.4-25.98,27.4,25.98,27.5-25.98,27.4,25.98,27.41-25.98,27.4,25.98,27.4-25.98,27.5,25.98,25.8-24.37c.47-.57,1.04-1.04,1.61-1.61,9.07,8.69,18.05,17.29,27.31,25.98l27.4-25.98,27.41,25.98,27.4-25.98,27.4,25.98,27.5-25.98,27.4,25.98,27.4-25.98,27.4,25.98,16.15-15.31v4.92l-16.15,15.3-27.4-25.98-27.4,25.98-27.4-25.98-27.5,25.98-27.4-25.98-27.4,25.98-27.41-25.98h0l-27.4,25.98-27.4-25.89-5.38,5.1-21.92,20.79-27.5-25.98-27.4,25.98-27.4-25.98-27.41,25.98-27.4-25.98-27.5,25.98-27.4-25.98h0l-27.4,25.98-27.4-25.98-27.41,25.98-27.5-25.98ZM208.08,679.54h0l-27.4,25.98-27.4-25.98-27.4,25.98-27.4-25.98-27.5,25.98-27.4-25.98-27.4,25.98-16.16-15.31v-4.91l16.16,15.31,27.4-25.89,27.4,25.89,27.5-25.89,27.4,25.89,27.4-25.89,27.4,25.89,27.4-25.89,27.5,25.89,27.41-25.89,27.4,25.89,27.4-25.89,27.4,25.89,27.5-25.89,27.4,25.89,27.41-25.89,27.4,25.89,27.4-25.89,27.5,25.89,25.8-24.37c.47-.57,1.04-1.04,1.61-1.51,9.07,8.59,18.05,17.19,27.31,25.89l27.4-25.89,27.41,25.89,27.4-25.89,27.4,25.89,27.5-25.89,27.4,25.89,27.4-25.89,27.4,25.89,16.15-15.31v4.91l-16.15,15.31-27.4-25.98-27.4,25.98-27.4-25.98-27.5,25.98-27.4-25.98-27.4,25.98-27.41-25.98h0l-27.4,25.98-27.4-25.89-5.38,5.1-21.92,20.79-27.5-25.98-27.4,25.98-27.4-25.98-27.41,25.98-27.4-25.98-27.5,25.98-27.4-25.98h0l-27.4,25.98-27.4-25.98-27.41,25.98-27.5-25.98ZM208.08,652.22h0l-27.4,25.89-27.4-25.89-27.4,25.89-27.4-25.89-27.5,25.89-27.4-25.89-27.4,25.89-16.16-15.3v-4.91l16.16,15.31,27.4-25.88,27.4,25.88,27.5-25.88,27.4,25.88,27.4-25.88,27.4,25.88,27.4-25.88,27.5,25.88,27.41-25.88,27.4,25.88,27.4-25.88,27.4,25.88,27.5-25.88,27.4,25.88,27.41-25.88,27.4,25.88,27.4-25.88,27.5,25.88,25.8-24.38c.47-.47,1.04-1.04,1.61-1.51,9.07,8.59,18.05,17.29,27.31,25.88l27.4-25.88,27.41,25.88,27.4-25.88,27.4,25.88,27.5-25.88,27.4,25.88,27.4-25.88,27.4,25.88,16.15-15.31v4.91l-16.15,15.3-27.4-25.89-27.4,25.89-27.4-25.89-27.5,25.89-27.4-25.89-27.4,25.89-27.41-25.89h0l-27.4,25.89-27.4-25.89-5.38,5.1-21.92,20.79-27.5-25.89-27.4,25.89-27.4-25.89-27.41,25.89-27.4-25.89-27.5,25.89-27.4-25.89h0l-27.4,25.89-27.4-25.89-27.41,25.89-27.5-25.89ZM208.08,624.83h0l-27.4,25.88-27.4-25.88-27.4,25.88-27.4-25.88-27.5,25.88-27.4-25.88-27.4,25.88-16.16-15.31v-4.82l16.16,15.31,27.4-25.98,27.4,25.98,27.5-25.98,27.4,25.98,27.4-25.98,27.4,25.98,27.4-25.98,27.5,25.98,27.41-25.98,27.4,25.98,27.4-25.98,27.4,25.98,27.5-25.98,27.4,25.98,27.41-25.98,27.4,25.98,27.4-25.98,27.5,25.98,25.8-24.47c.47-.47,1.04-1.04,1.61-1.51,9.07,8.6,18.05,17.29,27.31,25.98l27.4-25.98,27.41,25.98,27.4-25.98,27.4,25.98,27.5-25.98,27.4,25.98,27.4-25.98,27.4,25.98,16.15-15.31v4.82l-16.15,15.31-27.4-25.88-27.4,25.88-27.4-25.88-27.5,25.88-27.4-25.88-27.4,25.88-27.41-25.88h0l-27.4,25.88-27.4-25.79-5.38,5.01-21.92,20.79-27.5-25.88-27.4,25.88-27.4-25.88-27.41,25.88-27.4-25.88-27.5,25.88-27.4-25.88h0l-27.4,25.88-27.4-25.88-27.41,25.88-27.5-25.88ZM208.08,597.43h0l-27.4,25.98-27.4-25.98-27.4,25.98-27.4-25.98-27.5,25.98-27.4-25.98-27.4,25.98-16.16-15.3v-4.92l16.16,15.31,27.4-25.98,27.4,25.98,27.5-25.98,27.4,25.98,27.4-25.98,27.4,25.98,27.4-25.98,27.5,25.98,27.41-25.98,27.4,25.98,27.4-25.98,27.4,25.98,27.5-25.98,27.4,25.98,27.41-25.98,27.4,25.98,27.4-25.98,27.5,25.98,25.8-24.47c.47-.47,1.04-.94,1.61-1.51,9.07,8.69,18.05,17.29,27.31,25.98l27.4-25.98,27.41,25.98,27.4-25.98,27.4,25.98,27.5-25.98,27.4,25.98,27.4-25.98,27.4,25.98,16.15-15.31v4.92l-16.15,15.3-27.4-25.98-27.4,25.98-27.4-25.98-27.5,25.98-27.4-25.98-27.4,25.98-27.41-25.98h0l-27.4,25.98-27.4-25.89-5.38,5.1-21.92,20.79-27.5-25.98-27.4,25.98-27.4-25.98-27.41,25.98-27.4-25.98-27.5,25.98-27.4-25.98h0l-27.4,25.98-27.4-25.98-27.41,25.98-27.5-25.98ZM208.08,570.03h0l-27.4,25.98-27.4-25.98-27.4,25.98-27.4-25.98-27.5,25.98-27.4-25.98-27.4,25.98-16.16-15.31v-4.92l16.16,15.31,27.4-25.88,27.4,25.88,27.5-25.88,27.4,25.88,27.4-25.88,27.4,25.88,27.4-25.88,27.5,25.88,27.41-25.88,27.4,25.88,27.4-25.88,27.4,25.88,27.5-25.88,27.4,25.88,27.41-25.88,27.4,25.88,27.4-25.88,27.5,25.88,25.8-24.37c.47-.57,1.04-1.04,1.61-1.51,9.07,8.59,18.05,17.19,27.31,25.88l27.4-25.88,27.41,25.88,27.4-25.88,27.4,25.88,27.5-25.88,27.4,25.88,27.4-25.88,27.4,25.88,16.15-15.31v4.92l-16.15,15.31-27.4-25.98-27.4,25.98-27.4-25.98-27.5,25.98-27.4-25.98-27.4,25.98-27.41-25.98h0l-27.4,25.98-27.4-25.89-5.38,5.1-21.92,20.79-27.5-25.98-27.4,25.98-27.4-25.98-27.41,25.98-27.4-25.98-27.5,25.98-27.4-25.98h0l-27.4,25.98-27.4-25.98-27.41,25.98-27.5-25.98ZM208.08,542.72h0l-27.4,25.89-27.4-25.89-27.4,25.89-27.4-25.89-27.5,25.89-27.4-25.89-27.4,25.89-16.16-15.31v-4.92l16.16,15.31,27.4-25.88,27.4,25.88,27.5-25.88,27.4,25.88,27.4-25.88,27.4,25.88,27.4-25.88,27.5,25.88,27.41-25.88,27.4,25.88,27.4-25.88,27.4,25.88,27.5-25.88,27.4,25.88,27.41-25.88,27.4,25.88,27.4-25.88,27.5,25.88,25.8-24.37c.47-.48,1.04-1.04,1.61-1.51,9.07,8.59,18.05,17.19,27.31,25.88l27.4-25.88,27.41,25.88,27.4-25.88,27.4,25.88,27.5-25.88,27.4,25.88,27.4-25.88,27.4,25.88,16.15-15.31v4.92l-16.15,15.31-27.4-25.89-27.4,25.89-27.4-25.89-27.5,25.89-27.4-25.89-27.4,25.89-27.41-25.89h0l-27.4,25.89-27.4-25.89-5.38,5.1-21.92,20.79-27.5-25.89-27.4,25.89-27.4-25.89-27.41,25.89-27.4-25.89-27.5,25.89-27.4-25.89h0l-27.4,25.89-27.4-25.89-27.41,25.89-27.5-25.89ZM208.08,515.32h0l-27.4,25.89-27.4-25.89-27.4,25.89-27.4-25.89-27.5,25.89-27.4-25.89-27.4,25.89-16.16-15.31v-4.82l16.16,15.31,27.4-25.98,27.4,25.98,27.5-25.98,27.4,25.98,27.4-25.98,27.4,25.98,27.4-25.98,27.5,25.98,27.41-25.98,27.4,25.98,27.4-25.98,27.4,25.98,27.5-25.98,27.4,25.98,27.41-25.98,27.4,25.98,27.4-25.98,27.5,25.98,25.8-24.47c.47-.48,1.04-1.04,1.61-1.51,9.07,8.6,18.05,17.29,27.31,25.98l27.4-25.98,27.41,25.98,27.4-25.98,27.4,25.98,27.5-25.98,27.4,25.98,27.4-25.98,27.4,25.98,16.15-15.31v4.82l-16.15,15.31-27.4-25.89-27.4,25.89-27.4-25.89-27.5,25.89-27.4-25.89-27.4,25.89-27.41-25.89h0l-27.4,25.89-27.4-25.89-5.38,5.1-21.92,20.79-27.5-25.89-27.4,25.89-27.4-25.89-27.41,25.89-27.4-25.89-27.5,25.89-27.4-25.89h0l-27.4,25.89-27.4-25.89-27.41,25.89-27.5-25.89ZM208.08,487.92h0l-27.4,25.98-27.4-25.98-27.4,25.98-27.4-25.98-27.5,25.98-27.4-25.98-27.4,25.98-16.16-15.31v-4.92l16.16,15.31,27.4-25.98,27.4,25.98,27.5-25.98,27.4,25.98,27.4-25.98,27.4,25.98,27.4-25.98,27.5,25.98,27.41-25.98,27.4,25.98,27.4-25.98,27.4,25.98,27.5-25.98,27.4,25.98,27.41-25.98,27.4,25.98,27.4-25.98,27.5,25.98,25.8-24.47c.47-.47,1.04-.94,1.61-1.51,9.07,8.69,18.05,17.29,27.31,25.98l27.4-25.98,27.41,25.98,27.4-25.98,27.4,25.98,27.5-25.98,27.4,25.98,27.4-25.98,27.4,25.98,16.15-15.31v4.92l-16.15,15.31-27.4-25.98-27.4,25.98-27.4-25.98-27.5,25.98-27.4-25.98-27.4,25.98-27.41-25.98h0l-27.4,25.98-27.4-25.89-5.38,5.1-21.92,20.79-27.5-25.98-27.4,25.98-27.4-25.98-27.41,25.98-27.4-25.98-27.5,25.98-27.4-25.98h0l-27.4,25.98-27.4-25.98-27.41,25.98-27.5-25.98ZM208.08,460.52h0l-27.4,25.98-27.4-25.98-27.4,25.98-27.4-25.98-27.5,25.98-27.4-25.98-27.4,25.98-16.16-15.31v-4.92l16.16,15.31,27.4-25.98,27.4,25.98,27.5-25.98,27.4,25.98,27.4-25.98,27.4,25.98,27.4-25.98,27.5,25.98,27.41-25.98,27.4,25.98,27.4-25.98,27.4,25.98,27.5-25.98,27.4,25.98,27.41-25.98,27.4,25.98,27.4-25.98,27.5,25.98,25.8-24.37c.47-.57,1.04-1.04,1.61-1.61,9.07,8.69,18.05,17.29,27.31,25.98l27.4-25.98,27.41,25.98,27.4-25.98,27.4,25.98,27.5-25.98,27.4,25.98,27.4-25.98,27.4,25.98,16.15-15.31v4.92l-16.15,15.31-27.4-25.98-27.4,25.98-27.4-25.98-27.5,25.98-27.4-25.98-27.4,25.98-27.41-25.98h0l-27.4,25.98-27.4-25.89-5.38,5.1-21.92,20.79-27.5-25.98-27.4,25.98-27.4-25.98-27.41,25.98-27.4-25.98-27.5,25.98-27.4-25.98h0l-27.4,25.98-27.4-25.98-27.41,25.98-27.5-25.98ZM208.08,433.12h0l-27.4,25.98-27.4-25.98-27.4,25.98-27.4-25.98-27.5,25.98-27.4-25.98-27.4,25.98-16.16-15.31v-4.92l16.16,15.31,27.4-25.88,27.4,25.88,27.5-25.88,27.4,25.88,27.4-25.88,27.4,25.88,27.4-25.88,27.5,25.88,27.41-25.88,27.4,25.88,27.4-25.88,27.4,25.88,27.5-25.88,27.4,25.88,27.41-25.88,27.4,25.88,27.4-25.88,27.5,25.88,25.8-24.37c.47-.57,1.04-1.04,1.61-1.51,9.07,8.59,18.05,17.19,27.31,25.88l27.4-25.88,27.41,25.88,27.4-25.88,27.4,25.88,27.5-25.88,27.4,25.88,27.4-25.88,27.4,25.88,16.15-15.31v4.92l-16.15,15.31-27.4-25.98-27.4,25.98-27.4-25.98-27.5,25.98-27.4-25.98-27.4,25.98-27.41-25.98h0l-27.4,25.98-27.4-25.89-5.38,5.1-21.92,20.79-27.5-25.98-27.4,25.98-27.4-25.98-27.41,25.98-27.4-25.98-27.5,25.98-27.4-25.98h0l-27.4,25.98-27.4-25.98-27.41,25.98-27.5-25.98ZM208.08,405.81h0l-27.4,25.88-27.4-25.88-27.4,25.88-27.4-25.88-27.5,25.88-27.4-25.88-27.4,25.88-16.16-15.31v-4.82l16.16,15.21,27.4-25.89,27.4,25.89,27.5-25.89,27.4,25.98,27.4-25.98,27.4,25.89,27.4-25.89,27.5,25.89,27.41-25.89,27.4,25.89,27.4-25.89,27.4,25.89,27.5-25.89,27.4,25.98,27.41-25.98,27.4,25.89,27.4-25.89,27.5,25.89,25.8-24.38c.47-.47,1.04-1.04,1.61-1.51,9.07,8.6,18.05,17.29,27.31,25.89l27.4-25.89,27.41,25.89,27.4-25.89,27.4,25.98,27.5-25.98,27.4,25.89,27.4-25.89,27.4,25.89,16.15-15.21v4.82l-16.15,15.31-27.4-25.88-27.4,25.88-27.4-25.88-27.5,25.88-27.4-25.88-27.4,25.88-27.41-25.88h0l-27.4,25.88-27.4-25.88-5.38,5.1-21.92,20.79-27.5-25.88-27.4,25.88-27.4-25.88-27.41,25.88-27.4-25.88-27.5,25.88-27.4-25.88h0l-27.4,25.88-27.4-25.88-27.41,25.88-27.5-25.88ZM208.08,378.41h0l-27.4,25.89-27.4-25.89-27.4,25.98-27.4-25.98-27.5,25.89-27.4-25.89-27.4,25.89-16.16-15.3v-4.82l16.16,15.31,27.4-25.99,27.4,25.99,27.5-25.99,27.4,25.99,27.4-25.99,27.4,25.99,27.4-25.99,27.5,25.99,27.41-25.99,27.4,25.99,27.4-25.99,27.4,25.99,27.5-25.99,27.4,25.99,27.41-25.99,27.4,25.99,27.4-25.99,27.5,25.99,25.8-24.47c.47-.47,1.04-.94,1.61-1.51,9.07,8.69,18.05,17.29,27.31,25.99l27.4-25.99,27.41,25.99,27.4-25.99,27.4,25.99,27.5-25.99,27.4,25.99,27.4-25.99,27.4,25.99,16.15-15.31v4.82l-16.15,15.3-27.4-25.89-27.4,25.89-27.4-25.89-27.5,25.98-27.4-25.98-27.4,25.89-27.41-25.89h0l-27.4,25.89-27.4-25.79-5.38,5.01-21.92,20.78-27.5-25.89-27.4,25.89-27.4-25.89-27.41,25.98-27.4-25.98-27.5,25.89-27.4-25.89h0l-27.4,25.89-27.4-25.89-27.41,25.89-27.5-25.89ZM208.08,351.01h0l-27.4,25.98-27.4-25.98-27.4,25.98-27.4-25.98-27.5,25.98-27.4-25.98-27.4,25.98-16.16-15.31v-4.91l16.16,15.31,27.4-25.98,27.4,25.98,27.5-25.98,27.4,25.98,27.4-25.98,27.4,25.98,27.4-25.98,27.5,25.98,27.41-25.98,27.4,25.98,27.4-25.98,27.4,25.98,27.5-25.98,27.4,25.98,27.41-25.98,27.4,25.98,27.4-25.98,27.5,25.98,25.8-24.47c.47-.47,1.04-.94,1.61-1.51,9.07,8.69,18.05,17.29,27.31,25.98l27.4-25.98,27.41,25.98,27.4-25.98,27.4,25.98,27.5-25.98,27.4,25.98,27.4-25.98,27.4,25.98,16.15-15.31v4.91l-16.15,15.31-27.4-25.98-27.4,25.98-27.4-25.98-27.5,25.98-27.4-25.98-27.4,25.98-27.41-25.98h0l-27.4,25.98-27.4-25.89-5.38,5.1-21.92,20.78-27.5-25.98-27.4,25.98-27.4-25.98-27.41,25.98-27.4-25.98-27.5,25.98-27.4-25.98h0l-27.4,25.98-27.4-25.98-27.41,25.98-27.5-25.98ZM208.08,323.61h0l-27.4,25.99-27.4-25.99-27.4,25.99-27.4-25.99-27.5,25.99-27.4-25.99-27.4,25.99-16.16-15.31v-4.91l16.16,15.31,27.4-25.89,27.4,25.89,27.5-25.89,27.4,25.89,27.4-25.89,27.4,25.89,27.4-25.89,27.5,25.89,27.41-25.89,27.4,25.89,27.4-25.89,27.4,25.89,27.5-25.89,27.4,25.89,27.41-25.89,27.4,25.89,27.4-25.89,27.5,25.89,25.8-24.38c.47-.57,1.04-1.04,1.61-1.51,9.07,8.6,18.05,17.2,27.31,25.89l27.4-25.89,27.41,25.89,27.4-25.89,27.4,25.89,27.5-25.89,27.4,25.89,27.4-25.89,27.4,25.89,16.15-15.31v4.91l-16.15,15.31-27.4-25.99-27.4,25.99-27.4-25.99-27.5,25.99-27.4-25.99-27.4,25.99-27.41-25.99h0l-27.4,25.99-27.4-25.89-5.38,5.1-21.92,20.79-27.5-25.99-27.4,25.99-27.4-25.99-27.41,25.99-27.4-25.99-27.5,25.99-27.4-25.99h0l-27.4,25.99-27.4-25.99-27.41,25.99-27.5-25.99ZM208.08,296.3h0l-27.4,25.89-27.4-25.89-27.4,25.89-27.4-25.89-27.5,25.89-27.4-25.89-27.4,25.89-16.16-15.31v-4.92l16.16,15.31,27.4-25.89,27.4,25.89,27.5-25.89,27.4,25.89,27.4-25.89,27.4,25.89,27.4-25.89,27.5,25.89,27.41-25.89,27.4,25.89,27.4-25.89,27.4,25.89,27.5-25.89,27.4,25.89,27.41-25.89,27.4,25.89,27.4-25.89,27.5,25.89,25.8-24.37c.47-.48,1.04-1.04,1.61-1.51,9.07,8.6,18.05,17.29,27.31,25.89l27.4-25.89,27.41,25.89,27.4-25.89,27.4,25.89,27.5-25.89,27.4,25.89,27.4-25.89,27.4,25.89,16.15-15.31v4.92l-16.15,15.31-27.4-25.89-27.4,25.89-27.4-25.89-27.5,25.89-27.4-25.89-27.4,25.89-27.41-25.89h0l-27.4,25.89-27.4-25.89-5.38,5.1-21.92,20.79-27.5-25.89-27.4,25.89-27.4-25.89-27.41,25.89-27.4-25.89-27.5,25.89-27.4-25.89h0l-27.4,25.89-27.4-25.89-27.41,25.89-27.5-25.89ZM208.08,268.9h0l-27.4,25.89-27.4-25.89-27.4,25.89-27.4-25.89-27.5,25.89-27.4-25.89-27.4,25.89-16.16-15.31v-4.82l16.16,15.31,27.4-25.99,27.4,25.99,27.5-25.99,27.4,25.99,27.4-25.99,27.4,25.99,27.4-25.99,27.5,25.99,27.41-25.99,27.4,25.99,27.4-25.99,27.4,25.99,27.5-25.99,27.4,25.99,27.41-25.99,27.4,25.99,27.4-25.99,27.5,25.99,25.8-24.47c.47-.47,1.04-1.04,1.61-1.51,9.07,8.6,18.05,17.29,27.31,25.99l27.4-25.99,27.41,25.99,27.4-25.99,27.4,25.99,27.5-25.99,27.4,25.99,27.4-25.99,27.4,25.99,16.15-15.31v4.82l-16.15,15.31-27.4-25.89-27.4,25.89-27.4-25.89-27.5,25.89-27.4-25.89-27.4,25.89-27.41-25.89h0l-27.4,25.89-27.4-25.79-5.38,5.01-21.92,20.79-27.5-25.89-27.4,25.89-27.4-25.89-27.41,25.89-27.4-25.89-27.5,25.89-27.4-25.89h0l-27.4,25.89-27.4-25.89-27.41,25.89-27.5-25.89ZM208.08,241.5h0l-27.4,25.98-27.4-25.98-27.4,25.98-27.4-25.98-27.5,25.98-27.4-25.98-27.4,25.98L0,252.18v-4.91l16.16,15.31,27.4-25.98,27.4,25.98,27.5-25.98,27.4,25.98,27.4-25.98,27.4,25.98,27.4-25.98,27.5,25.98,27.41-25.98,27.4,25.98,27.4-25.98,27.4,25.98,27.5-25.98,27.4,25.98,27.41-25.98,27.4,25.98,27.4-25.98,27.5,25.98,25.8-24.47c.47-.47,1.04-.94,1.61-1.51,9.07,8.69,18.05,17.29,27.31,25.98l27.4-25.98,27.41,25.98,27.4-25.98,27.4,25.98,27.5-25.98,27.4,25.98,27.4-25.98,27.4,25.98,16.15-15.31v4.91l-16.15,15.31-27.4-25.98-27.4,25.98-27.4-25.98-27.5,25.98-27.4-25.98-27.4,25.98-27.41-25.98h0l-27.4,25.98-27.4-25.89-5.38,5.1-21.92,20.79-27.5-25.98-27.4,25.98-27.4-25.98-27.41,25.98-27.4-25.98-27.5,25.98-27.4-25.98h0l-27.4,25.98-27.4-25.98-27.41,25.98-27.5-25.98ZM208.08,214.1h0l-27.4,25.99-27.4-25.99-27.4,25.99-27.4-25.99-27.5,25.99-27.4-25.99-27.4,25.99L0,224.78v-4.91l16.16,15.31,27.4-25.89,27.4,25.89,27.5-25.89,27.4,25.89,27.4-25.89,27.4,25.89,27.4-25.89,27.5,25.89,27.41-25.89,27.4,25.89,27.4-25.89,27.4,25.89,27.5-25.89,27.4,25.89,27.41-25.89,27.4,25.89,27.4-25.89,27.5,25.89,25.8-24.38c.47-.57,1.04-1.04,1.61-1.51,9.07,8.6,18.05,17.2,27.31,25.89l27.4-25.89,27.41,25.89,27.4-25.89,27.4,25.89,27.5-25.89,27.4,25.89,27.4-25.89,27.4,25.89,16.15-15.31v4.91l-16.15,15.31-27.4-25.99-27.4,25.99-27.4-25.99-27.5,25.99-27.4-25.99-27.4,25.99-27.41-25.99h0l-27.4,25.99-27.4-25.89-5.38,5.1-21.92,20.79-27.5-25.99-27.4,25.99-27.4-25.99-27.41,25.99-27.4-25.99-27.5,25.99-27.4-25.99h0l-27.4,25.99-27.4-25.99-27.41,25.99-27.5-25.99ZM208.08,186.79h0l-27.4,25.89-27.4-25.89-27.4,25.89-27.4-25.89-27.5,25.89-27.4-25.89-27.4,25.89L0,197.38v-4.92l16.16,15.31,27.4-25.89,27.4,25.89,27.5-25.89,27.4,25.89,27.4-25.89,27.4,25.89,27.4-25.89,27.5,25.89,27.41-25.89,27.4,25.89,27.4-25.89,27.4,25.89,27.5-25.89,27.4,25.89,27.41-25.89,27.4,25.89,27.4-25.89,27.5,25.89,25.8-24.37c.47-.48,1.04-1.04,1.61-1.51,9.07,8.6,18.05,17.2,27.31,25.89l27.4-25.89,27.41,25.89,27.4-25.89,27.4,25.89,27.5-25.89,27.4,25.89,27.4-25.89,27.4,25.89,16.15-15.31v4.92l-16.15,15.3-27.4-25.89-27.4,25.89-27.4-25.89-27.5,25.89-27.4-25.89-27.4,25.89-27.41-25.89h0l-27.4,25.89-27.4-25.89-5.38,5.1-21.92,20.79-27.5-25.89-27.4,25.89-27.4-25.89-27.41,25.89-27.4-25.89-27.5,25.89-27.4-25.89h0l-27.4,25.89-27.4-25.89-27.41,25.89-27.5-25.89ZM208.08,159.4h0l-27.4,25.89-27.4-25.89-27.4,25.89-27.4-25.89-27.5,25.89-27.4-25.89-27.4,25.89L0,169.98v-4.82l16.16,15.31,27.4-25.99,27.4,25.99,27.5-25.99,27.4,25.99,27.4-25.99,27.4,25.99,27.4-25.99,27.5,25.99,27.41-25.99,27.4,25.99,27.4-25.99,27.4,25.99,27.5-25.99,27.4,25.99,27.41-25.99,27.4,25.99,27.4-25.99,27.5,25.99,25.8-24.47c.47-.47,1.04-1.04,1.61-1.51,9.07,8.6,18.05,17.29,27.31,25.99l27.4-25.99,27.41,25.99,27.4-25.99,27.4,25.99,27.5-25.99,27.4,25.99,27.4-25.99,27.4,25.99,16.15-15.31v4.82l-16.15,15.31-27.4-25.89-27.4,25.89-27.4-25.89-27.5,25.89-27.4-25.89-27.4,25.89-27.41-25.89h0l-27.4,25.89-27.4-25.89-5.38,5.1-21.92,20.79-27.5-25.89-27.4,25.89-27.4-25.89-27.41,25.89-27.4-25.89-27.5,25.89-27.4-25.89h0l-27.4,25.89-27.4-25.89-27.41,25.89-27.5-25.89ZM208.08,131.99h0l-27.4,25.98-27.4-25.98-27.4,25.98-27.4-25.98-27.5,25.98-27.4-25.98-27.4,25.98L0,142.67v-4.91l16.16,15.31,27.4-25.98,27.4,25.98,27.5-25.98,27.4,25.98,27.4-25.98,27.4,25.98,27.4-25.98,27.5,25.98,27.41-25.98,27.4,25.98,27.4-25.98,27.4,25.98,27.5-25.98,27.4,25.98,27.41-25.98,27.4,25.98,27.4-25.98,27.5,25.98,25.8-24.47c.47-.47,1.04-.94,1.61-1.51,9.07,8.69,18.05,17.29,27.31,25.98l27.4-25.98,27.41,25.98,27.4-25.98,27.4,25.98,27.5-25.98,27.4,25.98,27.4-25.98,27.4,25.98,16.15-15.31v4.91l-16.15,15.31-27.4-25.98-27.4,25.98-27.4-25.98-27.5,25.98-27.4-25.98-27.4,25.98-27.41-25.98h0l-27.4,25.98-27.4-25.89-5.38,5.1-21.92,20.79-27.5-25.98-27.4,25.98-27.4-25.98-27.41,25.98-27.4-25.98-27.5,25.98-27.4-25.98h0l-27.4,25.98-27.4-25.98-27.41,25.98-27.5-25.98ZM208.08,104.59h0l-27.4,25.99-27.4-25.99-27.4,25.99-27.4-25.99-27.5,25.99-27.4-25.99-27.4,25.99L0,115.27v-4.91l16.16,15.31,27.4-25.98,27.4,25.98,27.5-25.98,27.4,25.98,27.4-25.98,27.4,25.98,27.4-25.98,27.5,25.98,27.41-25.98,27.4,25.98,27.4-25.98,27.4,25.98,27.5-25.98,27.4,25.98,27.41-25.98,27.4,25.98,27.4-25.98,27.5,25.98,25.8-24.38c.47-.57,1.04-1.04,1.61-1.6,9.07,8.69,18.05,17.29,27.31,25.98l27.4-25.98,27.41,25.98,27.4-25.98,27.4,25.98,27.5-25.98,27.4,25.98,27.4-25.98,27.4,25.98,16.15-15.31v4.91l-16.15,15.31-27.4-25.99-27.4,25.99-27.4-25.99-27.5,25.99-27.4-25.99-27.4,25.99-27.41-25.99h0l-27.4,25.99-27.4-25.89-5.38,5.1-21.92,20.79-27.5-25.99-27.4,25.99-27.4-25.99-27.41,25.99-27.4-25.99-27.5,25.99-27.4-25.99h0l-27.4,25.99-27.4-25.99-27.41,25.99-27.5-25.99ZM208.08,77.19h0l-27.4,25.99-27.4-25.99-27.4,25.99-27.4-25.99-27.5,25.99-27.4-25.99-27.4,25.99L0,87.87v-4.91l16.16,15.31,27.4-25.89,27.4,25.89,27.5-25.89,27.4,25.89,27.4-25.89,27.4,25.89,27.4-25.89,27.5,25.89,27.41-25.89,27.4,25.89,27.4-25.89,27.4,25.89,27.5-25.89,27.4,25.89,27.41-25.89,27.4,25.89,27.4-25.89,27.5,25.89,25.8-24.38c.47-.57,1.04-1.04,1.61-1.51,9.07,8.6,18.05,17.2,27.31,25.89l27.4-25.89,27.41,25.89,27.4-25.89,27.4,25.89,27.5-25.89,27.4,25.89,27.4-25.89,27.4,25.89,16.15-15.31v4.91l-16.15,15.31-27.4-25.99-27.4,25.99-27.4-25.99-27.5,25.99-27.4-25.99-27.4,25.99-27.41-25.99h0l-27.4,25.99-27.4-25.89-5.38,5.1-21.92,20.79-27.5-25.99-27.4,25.99-27.4-25.99-27.41,25.99-27.4-25.99-27.5,25.99-27.4-25.99h0l-27.4,25.99-27.4-25.99-27.41,25.99-27.5-25.99ZM208.08,49.89h0l-27.4,25.89-27.4-25.89-27.4,25.89-27.4-25.89-27.5,25.89-27.4-25.89-27.4,25.89L0,60.47v-4.82l16.16,15.21,27.4-25.89,27.4,25.89,27.5-25.89,27.4,25.99,27.4-25.99,27.4,25.89,27.4-25.89,27.5,25.89,27.41-25.89,27.4,25.89,27.4-25.89,27.4,25.89,27.5-25.89,27.4,25.99,27.41-25.99,27.4,25.89,27.4-25.89,27.5,25.89,25.8-24.38c.47-.47,1.04-1.04,1.61-1.51,9.07,8.6,18.05,17.29,27.31,25.89l27.4-25.89,27.41,25.89,27.4-25.89,27.4,25.99,27.5-25.99,27.4,25.89,27.4-25.89,27.4,25.89,16.15-15.21v4.82l-16.15,15.31-27.4-25.89-27.4,25.89-27.4-25.89-27.5,25.89-27.4-25.89-27.4,25.89-27.41-25.89h0l-27.4,25.89-27.4-25.89-5.38,5.1-21.92,20.79-27.5-25.89-27.4,25.89-27.4-25.89-27.41,25.89-27.4-25.89-27.5,25.89-27.4-25.89h0l-27.4,25.89-27.4-25.89-27.41,25.89-27.5-25.89ZM208.08,22.49h0l-27.4,25.89-27.4-25.89-27.4,25.98-27.4-25.98-27.5,25.89-27.4-25.89-27.4,25.89L0,33.07v-4.82l16.16,15.31,27.4-25.98,27.4,25.98,27.5-25.98,27.4,25.98,27.4-25.98,27.4,25.98,27.4-25.98,27.5,25.98,27.41-25.98,27.4,25.98,27.4-25.98,27.4,25.98,27.5-25.98,27.4,25.98,27.41-25.98,27.4,25.98,27.4-25.98,27.5,25.98,25.8-24.47c.47-.47,1.04-.94,1.61-1.51,9.07,8.6,18.05,17.29,27.31,25.98l27.4-25.98,27.41,25.98,27.4-25.98,27.4,25.98,27.5-25.98,27.4,25.98,27.4-25.98,27.4,25.98,16.15-15.31v4.82l-16.15,15.31-27.4-25.89-27.4,25.89-27.4-25.89-27.5,25.98-27.4-25.98-27.4,25.89-27.41-25.89h0l-27.4,25.89-27.4-25.79-5.38,5.01-21.92,20.79-27.5-25.89-27.4,25.89-27.4-25.89-27.41,25.98-27.4-25.98-27.5,25.89-27.4-25.89h0l-27.4,25.89-27.4-25.89-27.41,25.89-27.5-25.89Z"/>
</svg>